<svg width="56" height="47" viewBox="0 0 56 47" fill="none" xmlns="http://www.w3.org/2000/svg">
<g id="Group">
<g id="Group_2">
<path id="Vector" d="M41.464 34.8431C37.3947 34.8431 32.8676 33.4697 27.9845 30.7229C21.0159 26.8063 14.8612 26.0433 9.72371 28.5357C5.90877 30.316 4.12847 33.2154 4.12847 33.2662C3.61981 34.0801 2.60249 34.2835 1.78864 33.8258C0.974784 33.3171 0.771318 32.2998 1.22911 31.4859C1.33084 31.3333 10.4358 16.9892 29.6631 27.8236C35.6653 31.1807 40.9044 32.2489 45.1772 30.9773C49.806 29.6039 51.688 25.9924 51.7897 25.8398C52.1966 25.026 53.214 24.6699 54.0787 25.1277C54.8925 25.5346 55.2486 26.5519 54.8417 27.3658C54.7399 27.5693 52.2475 32.3507 46.2962 34.1818C44.7702 34.6396 43.1425 34.8431 41.464 34.8431Z" fill="#8ED1EF"/>
</g>
<g id="Group_3">
<g id="Group_4">
<path id="Vector_2" d="M31.748 24.1104C36.8855 27.0097 40.5478 27.5184 43.0911 27.1115C39.9374 16.9383 28.0348 0 28.0348 0C28.0348 0 20.8628 10.224 16.1831 19.5325C20.5067 19.5325 25.7459 20.7024 31.748 24.1104Z" fill="#0053D0"/>
</g>
<g id="Group_5">
<path id="Vector_3" d="M41.4637 39.0649C36.6823 39.0649 31.4431 37.4881 25.9496 34.3853C20.5578 31.3842 15.929 30.5703 12.2158 32.0454C12.6736 40.3874 19.5405 47 28.0351 47C33.8847 47 39.0221 43.7955 41.7689 39.0649C41.6671 39.0649 41.5654 39.0649 41.4637 39.0649Z" fill="#0053D0"/>
</g>
</g>
</g>
</svg>
